<mxfile host="app.diagrams.net" modified="2023-01-29T03:38:05.154Z" agent="5.0 (Windows NT 10.0; Win64; x64) AppleWebKit/537.36 (KHTML, like Gecko) Chrome/93.0.4577.82 Safari/537.36" version="20.6.0" etag="pn6cXx7zQQJVz2qiAIDb" type="github">
  <diagram id="zQuCFTajzfHr_xF9S6xI" name="第 1 页">
    <mxGraphModel dx="577" dy="342" grid="1" gridSize="10" guides="1" tooltips="1" connect="1" arrows="1" fold="1" page="1" pageScale="1" pageWidth="827" pageHeight="1169" math="0" shadow="0">
      <root>
        <mxCell id="0" />
        <mxCell id="1" parent="0" />
        <mxCell id="1rZS1SdjrP4dtjfnOvL1-1" value="定位" style="rounded=0;whiteSpace=wrap;html=1;fillColor=#d5e8d4;strokeColor=#82b366;" vertex="1" parent="1">
          <mxGeometry x="90" y="60" width="410" height="30" as="geometry" />
        </mxCell>
        <mxCell id="1rZS1SdjrP4dtjfnOvL1-2" value="定位" style="rounded=0;whiteSpace=wrap;html=1;fillColor=#d5e8d4;strokeColor=#82b366;" vertex="1" parent="1">
          <mxGeometry x="520" y="60" width="410" height="30" as="geometry" />
        </mxCell>
      </root>
    </mxGraphModel>
  </diagram>
</mxfile>
